<svg width="692" height="246" viewBox="0 0 692 246" fill="none" xmlns="http://www.w3.org/2000/svg">
<path d="M18 25C18 105.025 101.562 177.166 209.142 177.166C370.262 177.166 689 59.6908 689 243" stroke="white" stroke-width="5" stroke-miterlimit="3.8637" stroke-linecap="round" stroke-dasharray="20 20"/>
<path d="M18 4L18 25" stroke="white" stroke-width="5" stroke-linecap="round" stroke-linejoin="round"/>
<path d="M1.23223 16.2322C0.255922 17.2085 0.255922 18.7915 1.23223 19.7678C2.20854 20.7441 3.79146 20.7441 4.76777 19.7678L1.23223 16.2322ZM18 3L19.7678 1.23223C18.7915 0.255922 17.2085 0.255922 16.2322 1.23223L18 3ZM31.2322 19.7678C32.2085 20.7441 33.7915 20.7441 34.7678 19.7678C35.7441 18.7915 35.7441 17.2085 34.7678 16.2322L31.2322 19.7678ZM4.76777 19.7678L19.7678 4.76777L16.2322 1.23223L1.23223 16.2322L4.76777 19.7678ZM16.2322 4.76777L31.2322 19.7678L34.7678 16.2322L19.7678 1.23223L16.2322 4.76777Z" fill="white"/>
</svg>
